<?xml version="1.0" encoding="UTF-8" standalone="no"?>
<!DOCTYPE svg PUBLIC "-//W3C//DTD SVG 1.1//EN" "http://www.w3.org/Graphics/SVG/1.1/DTD/svg11.dtd">
<svg width="100%" height="100%" viewBox="0 0 51 47" version="1.1" xmlns="http://www.w3.org/2000/svg" xmlns:xlink="http://www.w3.org/1999/xlink" xml:space="preserve" xmlns:serif="http://www.serif.com/" style="fill-rule:evenodd;clip-rule:evenodd;stroke-linejoin:round;stroke-miterlimit:2;">
    <g id="Mesa-de-trabajo2" serif:id="Mesa de trabajo2" transform="matrix(1,0,0,1,-25,-7)">
        <rect x="25" y="7" width="50.251" height="46.32" style="fill:none;"/>
        <clipPath id="_clip1">
            <rect x="25" y="7" width="50.251" height="46.32"/>
        </clipPath>
        <g clip-path="url(#_clip1)">
            <g id="Mesa-de-trabajo1" serif:id="Mesa de trabajo1" transform="matrix(0.333333,0,0,0.15,0,0)">
                <rect x="0" y="0" width="300" height="400" style="fill:none;"/>
                <g transform="matrix(0.109193,0,0,0.109193,133.621,178.161)">
                    <g transform="matrix(3,0,0,6.66667,-1770,-2466.67)">
                        <rect x="408.749" y="186.436" width="462.502" height="427.129" style="fill:white;"/>
                    </g>
                    <g transform="matrix(3,0,0,6.66667,-80.9076,449.079)">
                        <path d="M0,-40.544C-7.531,-40.544 -10.426,-33.739 -10.426,-27.223L9.991,-27.223C9.991,-34.753 7.819,-40.544 0,-40.544M-10.426,-14.191C-10.426,-6.085 -5.212,-0.726 5.791,-0.726C12.017,-0.726 18.821,-2.896 25.773,-5.938L29.827,9.988C23.892,13.03 13.901,16.652 2.316,16.652C-20.417,16.652 -33.592,2.604 -33.592,-20.418C-33.592,-41.849 -23.313,-57.196 0.723,-57.196C22.878,-57.196 31.711,-41.411 31.711,-23.601L31.711,-14.191L-10.426,-14.191Z" style="fill:rgb(239,65,68);fill-rule:nonzero;"/>
                    </g>
                    <g transform="matrix(3,0,0,6.66667,190.579,260.543)">
                        <path d="M0,-9.222C-2.606,-10.671 -6.517,-11.973 -10.714,-11.973C-17.519,-11.973 -22.877,-8.063 -22.877,7.865C-22.877,24.37 -17.666,28.279 -10.861,28.279C-6.805,28.279 -2.606,26.252 0,23.791L0,-9.222ZM2.316,-21.677C0.724,-25.874 0,-29.348 0,-35.286L0,-54.154L22.734,-54.154L22.734,43.483L3.766,43.483L1.446,35.952C-0.869,39.864 -7.096,44.932 -16.508,44.932C-32.29,44.932 -45.611,33.779 -45.611,8.009C-45.611,-16.318 -31.131,-28.916 -14.771,-28.916C-7.53,-28.916 -1.449,-26.453 2.316,-21.677" style="fill:rgb(239,65,68);fill-rule:nonzero;"/>
                    </g>
                    <g transform="matrix(3,0,0,6.66667,427.309,277.249)">
                        <path d="M0,11.004L-9.122,11.004C-15.203,11.004 -18.39,13.9 -18.39,18.532C-18.39,24.035 -15.348,27.077 -9.845,27.077C-6.661,27.077 -3.04,25.919 0,24.18L0,11.004ZM6.517,40.979L3.621,32.868C0.291,37.648 -6.661,42.425 -16.506,42.425C-30.554,42.425 -40.83,33.447 -40.83,19.114C-40.83,5.502 -30.694,-2.173 -13.175,-2.173L0,-2.173L0,-4.777C0,-12.308 -5.065,-14.045 -10.715,-14.045C-18.822,-14.045 -25.773,-12.162 -31.855,-9.413L-37.502,-25.63C-29.684,-28.96 -19.404,-31.421 -8.543,-31.421C13.321,-31.421 22.154,-21.865 22.154,-3.184L22.154,40.979L6.517,40.979Z" style="fill:rgb(239,65,68);fill-rule:nonzero;"/>
                    </g>
                    <g transform="matrix(3,0,0,6.66667,674.476,260.543)">
                        <path d="M0,-9.222C-2.607,-10.671 -6.517,-11.973 -10.714,-11.973C-17.52,-11.973 -22.878,-8.063 -22.878,7.865C-22.878,24.37 -17.666,28.279 -10.861,28.279C-6.805,28.279 -2.607,26.252 0,23.791L0,-9.222ZM2.316,-21.677C0.724,-25.874 0,-29.348 0,-35.286L0,-54.154L22.734,-54.154L22.734,43.483L3.766,43.483L1.446,35.952C-0.87,39.864 -7.096,44.932 -16.508,44.932C-32.29,44.932 -45.611,33.779 -45.611,8.009C-45.611,-16.318 -31.132,-28.916 -14.771,-28.916C-7.53,-28.916 -1.449,-26.453 2.316,-21.677" style="fill:rgb(239,65,68);fill-rule:nonzero;"/>
                    </g>
                    <g transform="matrix(3,0,0,6.66667,-115.463,-845.673)">
                        <path d="M0,31.973L-12.463,31.973L-22.057,0L-12.463,0L-5.742,26.816L-5.479,26.816L1.175,0L9.787,0L0,31.973Z" style="fill:rgb(239,65,68);fill-rule:nonzero;"/>
                    </g>
                    <g transform="matrix(3,0,0,6.66667,-21.315,-752.595)">
                        <path d="M0,4.047L-5.284,4.047C-8.81,4.047 -10.44,5.744 -10.44,8.158C-10.44,11.094 -8.874,12.857 -5.675,12.857C-3.656,12.857 -1.567,11.941 0,10.702L0,4.047ZM2.415,18.011L1.239,14.226C-0.392,16.447 -3.59,18.663 -8.09,18.663C-14.485,18.663 -18.795,14.554 -18.795,8.421C-18.795,2.48 -14.422,-1.043 -6.721,-1.043L0,-1.043L0,-2.674C0,-6.785 -2.348,-8.087 -5.612,-8.087C-9.398,-8.087 -12.596,-7.111 -15.203,-5.935L-17.358,-12.006C-14.16,-13.374 -9.787,-14.616 -4.765,-14.616C4.307,-14.616 8.222,-10.438 8.222,-2.282L8.222,18.011L2.415,18.011Z" style="fill:rgb(239,65,68);fill-rule:nonzero;"/>
                    </g>
                    <g transform="matrix(3,0,0,6.66667,102.001,-831.315)">
                        <path d="M0,27.666C-1.827,28.645 -6.134,30.472 -10.962,30.472C-20.49,30.472 -26.231,25.056 -26.231,13.832C-26.231,3.394 -20.49,-2.806 -11.028,-2.806C-6.785,-2.806 -3.132,-1.959 -0.066,-0.196L-2.282,5.609C-4.569,4.241 -7.505,3.653 -10.311,3.653C-14.745,3.653 -17.554,6.655 -17.554,13.832C-17.554,21.077 -14.877,24.01 -10.245,24.01C-6.917,24.01 -3.653,22.771 -1.567,21.599L0,27.666Z" style="fill:rgb(239,65,68);fill-rule:nonzero;"/>
                    </g>
                    <g transform="matrix(3,0,0,6.66667,170.897,-752.595)">
                        <path d="M0,4.047L-5.284,4.047C-8.81,4.047 -10.441,5.744 -10.441,8.158C-10.441,11.094 -8.874,12.857 -5.676,12.857C-3.656,12.857 -1.567,11.941 0,10.702L0,4.047ZM2.414,18.011L1.238,14.226C-0.392,16.447 -3.59,18.663 -8.09,18.663C-14.486,18.663 -18.796,14.554 -18.796,8.421C-18.796,2.48 -14.422,-1.043 -6.722,-1.043L0,-1.043L0,-2.674C0,-6.785 -2.352,-8.087 -5.612,-8.087C-9.398,-8.087 -12.596,-7.111 -15.203,-5.935L-17.358,-12.006C-14.16,-13.374 -9.787,-14.616 -4.766,-14.616C4.307,-14.616 8.222,-10.438 8.222,-2.282L8.222,18.011L2.414,18.011Z" style="fill:rgb(239,65,68);fill-rule:nonzero;"/>
                    </g>
                    <g transform="matrix(3,0,0,6.66667,294.214,-831.315)">
                        <path d="M0,27.666C-1.827,28.645 -6.134,30.472 -10.963,30.472C-20.49,30.472 -26.231,25.056 -26.231,13.832C-26.231,3.394 -20.49,-2.806 -11.028,-2.806C-6.785,-2.806 -3.132,-1.959 -0.066,-0.196L-2.282,5.609C-4.569,4.241 -7.505,3.653 -10.312,3.653C-14.748,3.653 -17.555,6.655 -17.555,13.832C-17.555,21.077 -14.878,24.01 -10.245,24.01C-6.918,24.01 -3.653,22.771 -1.567,21.599L0,27.666Z" style="fill:rgb(239,65,68);fill-rule:nonzero;"/>
                    </g>
                    <g transform="matrix(3,0,0,6.66667,-1770,-4431.88)">
                        <path d="M696.093,524.879L704.704,524.879L704.704,532.644L696.093,532.644L696.093,524.879ZM696.353,569.903L696.353,544.063L692.636,543.28L692.636,537.929L704.837,537.929L704.837,569.903L696.353,569.903Z" style="fill:rgb(239,65,68);fill-rule:nonzero;"/>
                    </g>
                    <g transform="matrix(3,0,0,6.66667,427.699,-738.668)">
                        <path d="M0,-0.13C0,-7.831 -2.281,-10.505 -6.266,-10.505C-10.244,-10.505 -12.463,-7.765 -12.463,-0.13C-12.463,7.308 -10.44,10.31 -6.266,10.31C-2.088,10.31 0,7.505 0,-0.13M8.744,-0.13C8.744,10.769 3.265,16.574 -6.266,16.574C-15.856,16.574 -21.272,10.832 -21.272,-0.13C-21.272,-9.528 -16.053,-16.704 -6.266,-16.704C3.392,-16.704 8.744,-9.528 8.744,-0.13" style="fill:rgb(239,65,68);fill-rule:nonzero;"/>
                    </g>
                    <g transform="matrix(3,0,0,6.66667,532.614,-850.033)">
                        <path d="M0,32.627L0,13.639C0,8.81 -1.827,6.525 -5.742,6.525C-7.961,6.525 -9.854,7.505 -11.354,8.485L-11.354,32.627L-19.902,32.627L-19.902,0.654L-14.031,0.654L-12.726,4.307C-10.899,2.155 -7.376,0 -2.61,0C5.479,0 8.677,4.765 8.677,12.855L8.677,32.627L0,32.627Z" style="fill:rgb(239,65,68);fill-rule:nonzero;"/>
                    </g>
                    <g transform="matrix(3,0,0,6.66667,619.52,-669.918)">
                        <path d="M0,-20.752C-4.241,-20.752 -6.004,-16.903 -6.004,-13.117L5.675,-13.117C5.675,-17.229 4.437,-20.752 0,-20.752M-6.004,-8.093C-6.004,-3.002 -3.132,-0.196 2.218,-0.196C5.479,-0.196 8.807,-1.438 11.613,-2.873L13.246,3.131C10.57,4.566 6.196,6.263 1.175,6.263C-8.678,6.263 -14.552,0.129 -14.552,-10.441C-14.552,-20.294 -9.787,-27.015 0.455,-27.015C10.112,-27.015 13.9,-19.839 13.9,-11.813L13.9,-8.093L-6.004,-8.093Z" style="fill:rgb(239,65,68);fill-rule:nonzero;"/>
                    </g>
                    <g transform="matrix(3,0,0,6.66667,702.703,-688.627)">
                        <path d="M0,-15.14C0,-10.179 13.834,-11.68 13.834,-1.239C13.834,4.566 9.527,9.069 1.238,9.069C-2.61,9.069 -6.2,7.96 -8.353,6.718L-6.589,0.78C-5.088,1.826 -1.959,3.002 0.979,3.002C3.782,3.002 5.675,1.434 5.675,-0.525C5.675,-6.266 -7.96,-4.373 -7.96,-15.27C-7.96,-19.969 -4.374,-24.209 4.24,-24.209C7.568,-24.209 11.028,-23.558 13.243,-22.645L12.071,-16.445C9.919,-17.425 7.176,-18.076 4.373,-18.076C1.435,-18.076 0,-16.967 0,-15.14" style="fill:rgb(239,65,68);fill-rule:nonzero;"/>
                    </g>
                    <g transform="matrix(3,0,0,6.66667,-70.2582,-565.351)">
                        <path d="M0,56.726C-3.422,58.536 -8.349,60.247 -13.981,60.247C-23.235,60.247 -30.075,54.312 -30.075,42.543L-30.075,21.221L-37.113,21.221L-37.113,9.956L-29.772,9.956L-29.772,1.506L-14.284,-3.521L-14.284,9.956L-1.711,9.956L-1.711,21.221L-14.284,21.221L-14.284,42.041C-14.284,44.957 -12.875,46.668 -9.755,46.668C-7.343,46.668 -4.526,46.063 -2.313,44.957L0,56.726Z" style="fill:rgb(238,53,49);fill-rule:nonzero;"/>
                    </g>
                    <g transform="matrix(3,0,0,6.66667,8.7906,-240.821)">
                        <path d="M0,-28.162C-5.229,-28.162 -7.24,-23.434 -7.24,-18.909L6.94,-18.909C6.94,-24.138 5.431,-28.162 0,-28.162M-7.24,-9.856C-7.24,-4.224 -3.622,-0.505 4.025,-0.505C8.349,-0.505 13.077,-2.012 17.905,-4.123L20.72,6.94C16.597,9.051 9.657,11.567 1.607,11.567C-14.18,11.567 -23.336,1.812 -23.336,-14.183C-23.336,-29.067 -16.194,-39.729 0.504,-39.729C15.892,-39.729 22.028,-28.767 22.028,-16.396L22.028,-9.856L-7.24,-9.856Z" style="fill:rgb(238,53,49);fill-rule:nonzero;"/>
                    </g>
                    <g transform="matrix(3,0,0,6.66667,149.09,-505.69)">
                        <path d="M0,50.291L-15.69,50.291L-15.69,1.006L-4.627,1.006L-3.117,7.846L-2.616,7.846C-1.406,3.924 3.019,0 8.652,0C10.864,0 12.573,0.202 14.082,0.603L13.88,14.083C12.068,13.582 9.859,13.276 7.744,13.276C4.829,13.276 2.011,14.181 0,15.59L0,50.291Z" style="fill:rgb(238,53,49);fill-rule:nonzero;"/>
                    </g>
                    <g transform="matrix(3,0,0,6.66667,319.57,-261.617)">
                        <path d="M0,-21.925C-3.422,-23.835 -7.848,-24.742 -11.769,-24.742C-17.603,-24.742 -21.426,-21.32 -21.426,-11.064C-21.426,-1.205 -18.106,2.616 -11.668,2.616C-7.041,2.616 -1.913,0.806 1.207,-0.902L4.022,10.363C1.406,11.768 -5.531,14.684 -13.178,14.684C-28.867,14.684 -37.718,5.836 -37.718,-11.064C-37.718,-26.854 -28.968,-36.609 -13.278,-36.609C-6.338,-36.609 -0.907,-35.301 4.022,-32.588L0,-21.925Z" style="fill:rgb(238,53,49);fill-rule:nonzero;"/>
                    </g>
                    <g transform="matrix(3,0,0,6.66667,416.722,-240.821)">
                        <path d="M0,-28.162C-5.229,-28.162 -7.24,-23.434 -7.24,-18.909L6.94,-18.909C6.94,-24.138 5.431,-28.162 0,-28.162M-7.24,-9.856C-7.24,-4.224 -3.622,-0.505 4.024,-0.505C8.349,-0.505 13.076,-2.012 17.905,-4.123L20.72,6.94C16.597,9.051 9.656,11.567 1.607,11.567C-14.181,11.567 -23.336,1.812 -23.336,-14.183C-23.336,-29.067 -16.194,-39.729 0.504,-39.729C15.892,-39.729 22.027,-28.767 22.027,-16.396L22.027,-9.856L-7.24,-9.856Z" style="fill:rgb(238,53,49);fill-rule:nonzero;"/>
                    </g>
                    <g transform="matrix(3,0,0,6.66667,557.021,-505.69)">
                        <path d="M0,50.291L-15.69,50.291L-15.69,1.006L-4.627,1.006L-3.117,7.846L-2.616,7.846C-1.406,3.924 3.019,0 8.651,0C10.864,0 12.572,0.202 14.082,0.603L13.88,14.083C12.068,13.582 9.858,13.276 7.744,13.276C4.828,13.276 2.011,14.181 0,15.59L0,50.291Z" style="fill:rgb(238,53,49);fill-rule:nonzero;"/>
                    </g>
                    <g transform="matrix(3,0,0,6.66667,696.422,-360.165)">
                        <path d="M0,7.642L-6.338,7.642C-10.562,7.642 -12.774,9.653 -12.774,12.874C-12.774,16.694 -10.663,18.806 -6.84,18.806C-4.627,18.806 -2.112,18.002 0,16.795L0,7.642ZM4.522,28.463L2.515,22.83C0.201,26.149 -4.627,29.469 -11.467,29.469C-21.225,29.469 -28.366,23.231 -28.366,13.274C-28.366,3.822 -21.322,-1.511 -9.153,-1.511L0,-1.511L0,-3.32C0,-8.552 -3.521,-9.759 -7.444,-9.759C-13.077,-9.759 -17.905,-8.451 -22.129,-6.541L-26.053,-17.806C-20.619,-20.119 -13.478,-21.827 -5.936,-21.827C9.254,-21.827 15.39,-15.19 15.39,-2.213L15.39,28.463L4.522,28.463Z" style="fill:rgb(238,53,49);fill-rule:nonzero;"/>
                    </g>
                    <g transform="matrix(3,0,0,6.66667,-70.2582,-565.351)">
                        <path d="M0,56.726C-3.422,58.536 -8.349,60.247 -13.981,60.247C-23.235,60.247 -30.075,54.312 -30.075,42.543L-30.075,21.221L-37.113,21.221L-37.113,9.956L-29.772,9.956L-29.772,1.506L-14.284,-3.521L-14.284,9.956L-1.711,9.956L-1.711,21.221L-14.284,21.221L-14.284,42.041C-14.284,44.957 -12.875,46.668 -9.755,46.668C-7.343,46.668 -4.526,46.063 -2.313,44.957L0,56.726Z" style="fill:rgb(239,65,68);fill-rule:nonzero;"/>
                    </g>
                    <g transform="matrix(3,0,0,6.66667,8.7906,-240.821)">
                        <path d="M0,-28.162C-5.229,-28.162 -7.24,-23.434 -7.24,-18.909L6.94,-18.909C6.94,-24.138 5.431,-28.162 0,-28.162M-7.24,-9.856C-7.24,-4.224 -3.622,-0.505 4.025,-0.505C8.349,-0.505 13.077,-2.012 17.905,-4.123L20.72,6.94C16.597,9.051 9.657,11.567 1.607,11.567C-14.18,11.567 -23.336,1.812 -23.336,-14.183C-23.336,-29.067 -16.194,-39.729 0.504,-39.729C15.892,-39.729 22.028,-28.767 22.028,-16.396L22.028,-9.856L-7.24,-9.856Z" style="fill:rgb(239,65,68);fill-rule:nonzero;"/>
                    </g>
                    <g transform="matrix(3,0,0,6.66667,149.09,-505.69)">
                        <path d="M0,50.291L-15.69,50.291L-15.69,1.006L-4.627,1.006L-3.117,7.846L-2.616,7.846C-1.406,3.924 3.019,0 8.652,0C10.864,0 12.573,0.202 14.082,0.603L13.88,14.083C12.068,13.582 9.859,13.276 7.744,13.276C4.829,13.276 2.011,14.181 0,15.59L0,50.291Z" style="fill:rgb(239,65,68);fill-rule:nonzero;"/>
                    </g>
                    <g transform="matrix(3,0,0,6.66667,319.57,-261.617)">
                        <path d="M0,-21.925C-3.422,-23.835 -7.848,-24.742 -11.769,-24.742C-17.603,-24.742 -21.426,-21.32 -21.426,-11.064C-21.426,-1.205 -18.106,2.616 -11.668,2.616C-7.041,2.616 -1.913,0.806 1.207,-0.902L4.022,10.363C1.406,11.768 -5.531,14.684 -13.178,14.684C-28.867,14.684 -37.718,5.836 -37.718,-11.064C-37.718,-26.854 -28.968,-36.609 -13.278,-36.609C-6.338,-36.609 -0.907,-35.301 4.022,-32.588L0,-21.925Z" style="fill:rgb(239,65,68);fill-rule:nonzero;"/>
                    </g>
                    <g transform="matrix(3,0,0,6.66667,416.722,-240.821)">
                        <path d="M0,-28.162C-5.229,-28.162 -7.24,-23.434 -7.24,-18.909L6.94,-18.909C6.94,-24.138 5.431,-28.162 0,-28.162M-7.24,-9.856C-7.24,-4.224 -3.622,-0.505 4.024,-0.505C8.349,-0.505 13.076,-2.012 17.905,-4.123L20.72,6.94C16.597,9.051 9.656,11.567 1.607,11.567C-14.181,11.567 -23.336,1.812 -23.336,-14.183C-23.336,-29.067 -16.194,-39.729 0.504,-39.729C15.892,-39.729 22.027,-28.767 22.027,-16.396L22.027,-9.856L-7.24,-9.856Z" style="fill:rgb(239,65,68);fill-rule:nonzero;"/>
                    </g>
                    <g transform="matrix(3,0,0,6.66667,557.021,-505.69)">
                        <path d="M0,50.291L-15.69,50.291L-15.69,1.006L-4.627,1.006L-3.117,7.846L-2.616,7.846C-1.406,3.924 3.019,0 8.651,0C10.864,0 12.572,0.202 14.082,0.603L13.88,14.083C12.068,13.582 9.858,13.276 7.744,13.276C4.828,13.276 2.011,14.181 0,15.59L0,50.291Z" style="fill:rgb(239,65,68);fill-rule:nonzero;"/>
                    </g>
                    <g transform="matrix(3,0,0,6.66667,696.422,-360.165)">
                        <path d="M0,7.642L-6.338,7.642C-10.562,7.642 -12.774,9.653 -12.774,12.874C-12.774,16.694 -10.663,18.806 -6.84,18.806C-4.627,18.806 -2.112,18.002 0,16.795L0,7.642ZM4.522,28.463L2.515,22.83C0.201,26.149 -4.627,29.469 -11.467,29.469C-21.225,29.469 -28.366,23.231 -28.366,13.274C-28.366,3.822 -21.322,-1.511 -9.153,-1.511L0,-1.511L0,-3.32C0,-8.552 -3.521,-9.759 -7.444,-9.759C-13.077,-9.759 -17.905,-8.451 -22.129,-6.541L-26.053,-17.806C-20.619,-20.119 -13.478,-21.827 -5.936,-21.827C9.254,-21.827 15.39,-15.19 15.39,-2.213L15.39,28.463L4.522,28.463Z" style="fill:rgb(239,65,68);fill-rule:nonzero;"/>
                    </g>
                    <g transform="matrix(3,0,0,6.66667,-298.036,-717.243)">
                        <path d="M0,-51.668L0.239,-46.263L-9.213,-45.842L-4.944,0L22.667,-18.153C22.667,-18.153 16.851,-36.171 15.137,-37.11C13.423,-38.049 9.859,-42.967 9.859,-42.967L0,-51.668Z" style="fill:rgb(98,187,70);fill-rule:nonzero;"/>
                    </g>
                    <g transform="matrix(3,0,0,6.66667,-183,-632.036)">
                        <path d="M0,-16.74C-1.654,-16.328 -11.198,-17.932 -11.198,-17.932L-15.678,-30.934L-43.287,-12.781L-18.125,14.194L-18.772,-0.335L-3.457,-6.772C-3.457,-6.772 1.654,-17.152 0,-16.74" style="fill:rgb(68,163,219);fill-rule:nonzero;"/>
                    </g>
                    <g transform="matrix(3,0,0,6.66667,-352.809,-314.474)">
                        <path d="M0,-9.052L0.389,-0.268L-2.645,6.635L1.49,24.39L16.986,22.008L14.437,14.828L20.155,5.618L22.832,-9.392L38.778,-26.689L38.479,-33.442C38.479,-33.442 13.469,-22.448 6.759,-19.478L0,-9.052Z" style="fill:rgb(0,108,183);fill-rule:nonzero;"/>
                    </g>
                    <g transform="matrix(-1.75953,5.39961,2.42983,3.91007,-306.751,-746.234)">
                        <path d="M41.683,19.598L41.719,19.598C35.376,23.293 11.805,37.099 11.805,37.099L4.717,0.9L41.683,19.598Z" style="fill:rgb(239,65,68);fill-rule:nonzero;"/>
                    </g>
                    <g transform="matrix(3,0,0,6.66667,-348.343,232.625)">
                        <path d="M0,-57.675L15.497,-60.057L22.291,-45.128L12.604,-18.634L7.802,-7.589L-18.501,2.382L-24.047,-9.557L-11.737,-20.937L-2.734,-44.013L0,-57.675Z" style="fill:rgb(68,163,219);fill-rule:nonzero;"/>
                    </g>
                    <g transform="matrix(3,0,0,6.66667,-401.635,658.441)">
                        <path d="M0,-57.462L4.69,-52.256L-2.028,-40.446L-3.667,-14.653L6.344,-15.097L5.609,-31.651L15.208,-28.793L6.969,5.183L29.372,14.001L31.575,-6.745L22.221,-21.43L18.879,-46.456L25.882,-64.367L25.566,-71.463L-0.735,-61.492L0,-57.462Z" style="fill:rgb(98,187,70);fill-rule:nonzero;"/>
                    </g>
                    <g transform="matrix(3,0,0,6.66667,-411.599,953.575)">
                        <path d="M0,-51.192C-0.994,-48.83 -4.108,-33.053 -4.108,-33.053L-17.908,-21.722L3.506,-22.679L14.529,0L22.322,-7.009L18.931,-17.865L28.3,-22.625L32.693,-30.267L10.291,-39.087L6.312,-50.313L0,-51.192Z" style="fill:rgb(239,65,68);fill-rule:nonzero;"/>
                    </g>
                    <g transform="matrix(3,0,0,6.66667,-319.131,947.948)">
                        <path d="M0,24.153L-2.573,45.988L-20.766,34.634L-33.348,14.055L-40.858,-4.726L-41.167,-11.663L-27.317,-21.835L-16.295,0.843L-13.284,14.9L-6.278,11.69L0,24.153Z" style="fill:rgb(0,108,183);fill-rule:nonzero;"/>
                    </g>
                    <g transform="matrix(3,0,0,6.66667,-215.892,1313.62)">
                        <path d="M0,-28.756C-0.887,-27.269 -1.363,-5.818 -1.363,-5.818L15.408,-3.956L9.994,2.944L-12.659,-0.681L-36.986,-8.865L-34.414,-30.697L-11.916,-31.7L0,-28.756Z" style="fill:rgb(68,163,219);fill-rule:nonzero;"/>
                    </g>
                    <g transform="matrix(3,0,0,6.66667,-417.885,-91.1467)">
                        <path d="M0,-18.244C-3.518,-18.269 -15.166,-3.666 -15.166,-3.666L2.607,0.025L0,-18.244Z" style="fill:rgb(0,108,183);fill-rule:nonzero;"/>
                    </g>
                    <g transform="matrix(-1.4905,5.78564,2.60354,3.31221,-409.35,-430.927)">
                        <path d="M-7.423,-13.354L12.924,-13.354L-1.54,2.03L-4.784,-0.022L-7.423,-13.354Z" style="fill:rgb(98,187,70);fill-rule:nonzero;"/>
                    </g>
                    <g transform="matrix(3,0,0,6.66667,-451.635,1461.68)">
                        <path d="M0,-36.813L-3.432,-15.105C-3.797,-12.403 -2.06,-0.469 0.631,0L15.174,-1.8C17.294,-2.063 17.966,-4.799 16.214,-6.015L4.146,-14.39L0,-36.813Z" style="fill:rgb(68,163,219);fill-rule:nonzero;"/>
                    </g>
                    <g transform="matrix(3,0,0,6.66667,-134.105,867.071)">
                        <path d="M0,50.141C-6.485,50.141 -12.005,47.831 -15.857,44.942L-12.265,37.495C-9.438,39.934 -4.301,42.181 0.129,42.181C4.558,42.181 7.64,39.421 7.64,35.76C7.64,25.425 -14.895,30.559 -14.895,13.417C-14.895,6.034 -9.115,0 2.247,0C7.96,0 12.777,1.219 16.759,3.337L13.61,10.914C10.913,9.309 6.612,8.217 2.12,8.217C-2.311,8.217 -5.134,9.632 -5.134,13.291C-5.134,22.02 17.528,18.618 17.528,35.246C17.528,42.887 11.109,50.141 0,50.141" style="fill:rgb(0,108,183);fill-rule:nonzero;"/>
                    </g>
                    <g transform="matrix(3,0,0,6.66667,-63.8028,871.777)">
                        <path d="M0,48.729L0,0L29.916,0L29.916,8.026L9.501,8.026L9.501,20.032L25.168,20.032L24.459,28.377L9.501,28.377L9.501,40.833L29.982,40.833L29.982,48.666L0,48.666L0,48.729Z" style="fill:rgb(0,108,183);fill-rule:nonzero;"/>
                    </g>
                    <g transform="matrix(3,0,0,6.66667,86.2368,1147.41)">
                        <path d="M0,-33.961L-4.75,-33.961L-4.75,-18.36L0,-18.36C6.229,-18.36 8.796,-21.187 8.796,-26.706C8.796,-32.163 5.713,-33.961 0,-33.961M-4.75,7.384L-14.125,7.384L-14.125,-41.345L1.542,-41.345C11.106,-41.345 18.94,-36.851 18.94,-26.706C18.94,-20.158 15.218,-15.214 9.695,-12.711C13.097,-5.905 16.626,0.579 20.032,7.321L8.922,7.321L0.899,-11.106C-1.285,-11.043 -2.696,-11.043 -4.75,-11.043L-4.75,7.384Z" style="fill:rgb(0,108,183);fill-rule:nonzero;"/>
                    </g>
                    <g transform="matrix(3,0,0,6.66667,230.496,871.777)">
                        <path d="M0,48.729L-15.15,10.4L-15.407,10.4L-14.765,48.729L-23.307,48.729L-23.307,0L-8.795,0L6.549,39.101L6.806,39.101L6.166,0L14.895,0L14.895,48.666L0,48.666L0,48.729Z" style="fill:rgb(0,108,183);fill-rule:nonzero;"/>
                    </g>
                    <g transform="matrix(3,0,0,6.66667,343.942,1141.84)">
                        <path d="M0,-32.227L-5.33,-10.463L7.896,-10.463L2.89,-32.227L0,-32.227ZM-9.694,8.219L-18.939,8.219L-5.713,-40.446L10.014,-40.446L22.791,8.219L12.198,8.219L9.628,-2.757L-7.128,-2.757L-9.694,8.219Z" style="fill:rgb(0,108,183);fill-rule:nonzero;"/>
                    </g>
                    <g transform="matrix(3,0,0,6.66667,461.431,1143.14)">
                        <path d="M0,-32.679L0,8.023L-9.824,8.023L-9.824,-32.679L-21.57,-32.679L-21.57,-40.702L12.135,-40.702L12.135,-32.679L0,-32.679Z" style="fill:rgb(0,108,183);fill-rule:nonzero;"/>
                    </g>
                    <g transform="matrix(3,0,0,6.66667,619.945,999.339)">
                        <path d="M0,11.169C0,21.313 -5.457,30.302 -18.297,30.302C-31.074,30.302 -36.595,21.633 -36.595,11.169L-36.595,-19.133L-27.159,-19.133L-27.159,10.526C-27.159,17.654 -24.333,22.278 -18.297,22.278C-12.328,22.278 -9.564,17.654 -9.564,10.526L-9.564,-19.133L0,-19.133L0,11.169Z" style="fill:rgb(0,108,183);fill-rule:nonzero;"/>
                    </g>
                    <g transform="matrix(3,0,0,6.66667,685.814,1147.41)">
                        <path d="M0,-33.961L-4.75,-33.961L-4.75,-18.36L0,-18.36C6.229,-18.36 8.796,-21.187 8.796,-26.706C8.796,-32.163 5.713,-33.961 0,-33.961M-4.75,7.384L-14.125,7.384L-14.125,-41.345L1.542,-41.345C11.109,-41.345 18.939,-36.851 18.939,-26.706C18.939,-20.158 15.218,-15.214 9.695,-12.711C13.098,-5.905 16.627,0.579 20.032,7.321L8.859,7.321L0.836,-11.106C-1.348,-11.043 -2.76,-11.043 -4.813,-11.043L-4.813,7.384L-4.75,7.384Z" style="fill:rgb(0,108,183);fill-rule:nonzero;"/>
                    </g>
                    <g transform="matrix(3,0,0,6.66667,-1770,-1362.8)">
                        <rect x="722.249" y="311.171" width="51.216" height="12.079" style="fill:rgb(0,108,183);"/>
                    </g>
                    <g transform="matrix(3,0,0,6.66667,-1770,-1362.8)">
                        <rect x="773.465" y="311.171" width="64.081" height="12.079" style="fill:rgb(239,65,68);"/>
                    </g>
                </g>
            </g>
        </g>
    </g>
</svg>
