<?xml version="1.0" encoding="UTF-8" standalone="no"?><!DOCTYPE svg PUBLIC "-//W3C//DTD SVG 1.1//EN" "http://www.w3.org/Graphics/SVG/1.1/DTD/svg11.dtd"><svg width="100%" height="100%" viewBox="0 0 100 100" version="1.1" xmlns="http://www.w3.org/2000/svg" xmlns:xlink="http://www.w3.org/1999/xlink" xml:space="preserve" xmlns:serif="http://www.serif.com/" style="fill-rule:evenodd;clip-rule:evenodd;stroke-linejoin:round;stroke-miterlimit:2;"><path d="M49.948,1.256c-27.11,-0 -49.086,21.976 -49.086,49.086c0,27.109 21.976,49.086 49.086,49.086c27.11,-0 49.086,-21.977 49.086,-49.086c0,-27.11 -21.976,-49.086 -49.086,-49.086Zm-0.584,21.065c0.158,-0.675 0.772,-0.977 0.88,-1.031c0.282,-0.139 0.534,-0.16 1.04,-0.204c0,0 0.436,-0.028 0.817,-0.017c12.979,0.348 24.188,9.562 25.802,23.52c0.108,0.932 0.293,2.035 0.346,4.306c0.011,0.455 0.019,1.281 -0.54,1.813c-0.252,0.24 -0.541,0.347 -0.743,0.399c-0.28,-0.062 -0.722,-0.204 -1.061,-0.576c-0.459,-0.503 -0.484,-1.159 -0.496,-1.384c-0.137,-2.534 -0.496,-5.065 -1.078,-7.536c-2.158,-9.16 -10.473,-16.388 -19.84,-17.435c-1.088,-0.123 -2.18,-0.243 -3.274,-0.293c-0.742,-0.034 -1.479,-0.171 -1.769,-0.668c-0.211,-0.366 -0.107,-0.795 -0.084,-0.894Zm5.097,8.625c-0.024,-0.004 -0.547,-0.008 -1.208,-0.181c-0.52,-0.136 -0.926,-0.249 -1.234,-0.605c-0.293,-0.339 -0.372,-0.753 -0.384,-1.063c0.066,-0.239 0.207,-0.598 0.531,-0.859c0.457,-0.37 1.034,-0.348 1.305,-0.335c7.65,0.382 12.18,4.811 12.18,4.811c0.393,0.384 2.037,2.027 3.467,4.692c1.725,3.213 2.222,6.205 2.382,8.038c0.04,0.418 0.029,1.037 -0.259,1.674c-0.119,0.262 -0.253,0.551 -0.569,0.779c-0.383,0.277 -0.797,0.298 -0.975,0.296c-0.197,-0.074 -0.444,-0.201 -0.661,-0.426c-0.28,-0.29 -0.409,-0.606 -0.423,-0.737c-0.404,-3.511 -0.953,-6.941 -3.113,-9.907c-2.743,-3.763 -6.626,-5.431 -11.039,-6.177Zm10.004,13.343c-0.075,1.018 -0.488,1.393 -0.592,1.481c-0.308,0.261 -0.665,0.333 -0.881,0.357c-0.25,-0.049 -0.604,-0.161 -0.892,-0.445c-0.427,-0.422 -0.481,-1.003 -0.503,-1.192c-0.102,-0.881 -0.733,-3.697 -2.174,-4.996c-0.901,-0.813 -2.146,-1.242 -3.966,-1.506c-0.731,-0.105 -1.44,-0.254 -1.696,-0.738c-0.196,-0.37 -0.063,-0.788 -0.022,-0.92c0.299,-0.964 1.468,-1.242 1.561,-1.262c0.776,0.109 5.741,0.874 8.011,4.565c1.228,1.998 1.195,4.087 1.154,4.656Zm13.671,27.342c-1.862,2.268 -3.661,4.655 -5.867,6.553c-1.893,1.629 -4.369,1.825 -6.834,0.819c-20.244,-8.266 -34.763,-22.317 -43.138,-42.597c-0.21,-0.509 -0.38,-1.035 -0.559,-1.555c-1.568,-4.552 -1.095,-6.32 2.64,-9.382c1.22,-1.001 2.527,-1.908 3.852,-2.768c2.228,-1.447 4.678,-1.429 6.362,0.6c2.799,3.374 5.469,6.903 7.766,10.631c1.715,2.782 1.102,4.357 -1.414,6.453c-0.582,0.484 -1.206,0.918 -1.788,1.402c-1.456,1.209 -2.072,2.651 -1.429,4.565c2.815,8.388 8.69,13.691 16.88,16.509c0.952,0.327 2.44,-0.408 3.482,-0.999c0.778,-0.442 1.234,-1.448 1.836,-2.201c1.626,-2.034 4.257,-2.895 6.429,-1.517c3.882,2.463 7.602,5.199 11.25,8.001c0.783,0.601 0.972,1.972 1.394,2.898c-0.341,1.081 -0.388,2.01 -0.862,2.588Z" style="fill:#fff;fill-rule:nonzero;"/></svg>