<?xml version="1.0" encoding="UTF-8" standalone="no"?>
<!DOCTYPE svg PUBLIC "-//W3C//DTD SVG 1.1//EN" "http://www.w3.org/Graphics/SVG/1.1/DTD/svg11.dtd">
<svg width="100%" height="100%" viewBox="0 0 60 60" version="1.1" xmlns="http://www.w3.org/2000/svg" xmlns:xlink="http://www.w3.org/1999/xlink" xml:space="preserve" xmlns:serif="http://www.serif.com/" style="fill-rule:evenodd;clip-rule:evenodd;stroke-linejoin:round;stroke-miterlimit:2;">
    <g id="black">
        <g id="whatsapp">
            <path d="M30.408,56.683C25.297,56.683 20.495,55.439 16.318,53.256L0.18,58.139L5.441,43.361C2.788,39.21 1.259,34.342 1.259,29.139C1.259,13.926 14.309,1.594 30.408,1.594C46.506,1.594 59.556,13.926 59.556,29.139C59.556,44.351 46.506,56.683 30.408,56.683ZM30.408,5.981C16.894,5.981 5.902,16.369 5.902,29.139C5.902,34.206 7.636,38.898 10.569,42.716L7.508,51.316L16.925,48.466C20.795,50.885 25.43,52.296 30.408,52.296C43.92,52.296 54.914,41.908 54.914,29.139C54.914,16.37 43.92,5.981 30.408,5.981ZM45.126,35.482C44.947,35.201 44.47,35.032 43.757,34.694C43.042,34.357 39.528,32.723 38.875,32.499C38.219,32.274 37.742,32.16 37.266,32.836C36.791,33.512 35.421,35.032 35.003,35.482C34.586,35.933 34.17,35.99 33.456,35.652C32.742,35.315 30.439,34.601 27.709,32.301C25.586,30.512 24.152,28.303 23.735,27.626C23.318,26.951 23.691,26.586 24.049,26.25C24.37,25.947 24.763,25.461 25.121,25.067C25.478,24.673 25.597,24.392 25.834,23.941C26.073,23.49 25.954,23.096 25.775,22.758C25.596,22.42 24.167,19.098 23.572,17.746C22.977,16.395 22.382,16.62 21.965,16.62C21.548,16.62 21.071,16.564 20.595,16.564C20.119,16.564 19.344,16.733 18.689,17.408C18.035,18.084 16.189,19.718 16.189,23.039C16.189,26.362 18.748,29.571 19.107,30.021C19.464,30.471 24.048,37.51 31.311,40.214C38.576,42.917 38.576,42.015 39.887,41.903C41.195,41.79 44.112,40.27 44.709,38.693C45.304,37.116 45.304,35.764 45.126,35.482Z" style="fill:white;"/>
        </g>
    </g>
</svg>
